first trial
nRows=26
nColumns=38

# SIMM Motion File Header:
name Sujet_05_velo_80.mvnx
datacolumns 38
datarows 26
otherdata 1
range 12.3660 12.7830
endheader
time pelvis_tilt  pelvis_list  pelvis_rotation  pelvis_tx  pelvis_ty  pelvis_tz  hip_flexion_r  hip_adduction_r  hip_rotation_r  knee_angle_r  ankle_angle_r  subtalar_angle_r  mtp_angle_r  hip_flexion_l  hip_adduction_l  hip_rotation_l  knee_angle_l  ankle_angle_l  subtalar_angle_l  mtp_angle_l  lumbar_extension  lumbar_bending  lumbar_rotation  arm_flex_r  arm_add_r  arm_rot_r  elbow_flex_r  pro_sup_r  wrist_flex_r  wrist_dev_r  arm_flex_l  arm_add_l  arm_rot_l  elbow_flex_l  pro_sup_l  wrist_flex_l  wrist_dev_l
12.3660	-5.2297	4.9466	-83.1009	0.0000	1.2500	-0.0000	35.3479	-4.1946	-12.9700	42.3532	-20.1967	4.2368	-0.0000	79.5584	2.8990	-10.3460	96.3848	-4.1845	10.3497	-0.0000	-21.7378	-0.9324	-3.3080	84.1112	-10.7068	17.7247	4.4545	65.3681	-58.6270	-37.1273	94.4837	-5.9734	26.6289	-2.0284	57.5075	-42.1619	-21.3531	
12.3830	-5.2887	4.5255	-83.1409	0.0000	1.2500	-0.0000	36.7026	-4.0761	-12.4995	46.9731	-19.5939	4.0018	0.0000	78.8947	2.9294	-10.7848	92.9781	-3.2849	10.2057	-0.0000	-21.7652	-0.6529	-3.2181	84.1530	-10.7476	17.8152	4.4205	65.2542	-58.5886	-37.0460	94.5567	-5.9488	26.5656	-2.0031	57.3340	-42.1931	-21.3720	
12.4000	-5.3008	4.0168	-83.2333	0.0000	1.2500	-0.0000	38.3414	-3.9005	-11.9795	51.8692	-19.1129	3.7211	0.0000	77.7045	2.7941	-11.3081	89.2146	-2.7542	10.2583	-0.0000	-21.7965	-0.3355	-3.0966	84.2091	-10.7797	17.9299	4.3942	65.2276	-58.5573	-36.9592	94.5638	-5.9100	26.5393	-2.0230	57.1379	-42.2499	-21.4036	
12.4170	-5.2382	3.4052	-83.3583	0.0000	1.2500	-0.0000	40.2410	-3.6699	-11.3728	57.0396	-18.8275	3.3236	-0.0000	75.9840	2.4637	-11.9210	85.0904	-2.8181	10.6034	0.0000	-21.8354	0.0314	-2.9494	84.2578	-10.8256	18.0616	4.3980	65.3355	-58.5340	-36.8706	94.4655	-5.8210	26.6100	-2.1461	56.8849	-42.3545	-21.4580	
12.4330	-5.1268	2.7065	-83.5341	0.0000	1.2500	-0.0000	42.4263	-3.3734	-10.7407	62.4700	-18.6639	2.8762	0.0000	73.7405	1.9686	-12.6485	80.5856	-3.2551	11.1353	-0.0000	-21.8797	0.4364	-2.7714	84.3209	-10.8620	18.2178	4.4095	65.5302	-58.5176	-36.7765	94.3017	-5.7166	26.7177	-2.3160	56.6090	-42.4843	-21.5246	
12.4500	-5.0268	2.0488	-83.8296	0.0000	1.2500	-0.0000	44.8122	-3.0789	-10.2729	67.7609	-18.5383	2.5170	-0.0000	71.1006	1.3812	-13.3878	75.8590	-3.8554	11.7167	0.0000	-21.9223	0.8069	-2.5656	84.4741	-10.8089	18.4118	4.3944	65.7758	-58.5088	-36.6767	94.1730	-5.6870	26.7035	-2.3989	56.4522	-42.5895	-21.5734	
12.4660	-4.9441	1.4822	-84.2951	0.0000	1.2500	-0.0000	47.4056	-2.8296	-10.0958	72.8855	-18.5155	2.3099	0.0000	68.0185	0.7067	-14.1601	70.8967	-4.5477	12.3590	-0.0000	-21.9653	1.1117	-2.3253	84.7554	-10.6235	18.6949	4.3536	66.0474	-58.5101	-36.5579	94.1270	-5.7701	26.4347	-2.3215	56.5619	-42.6398	-21.5706	
12.4830	-4.8697	0.9571	-84.8809	0.0000	1.2500	-0.0000	50.1942	-2.5910	-10.0959	77.8909	-18.5238	2.1998	-0.0000	64.5390	-0.0298	-15.0003	65.7260	-5.4047	13.0444	-0.0000	-22.0078	1.3818	-2.0572	85.1221	-10.3443	19.0127	4.2863	66.3705	-58.5189	-36.4333	94.1138	-5.9287	26.0435	-2.1554	56.7907	-42.6656	-21.5504	
12.5000	-4.8405	0.4520	-85.5104	0.0000	1.2500	-0.0000	53.0646	-2.3120	-10.0914	82.4988	-18.2732	2.1628	-0.0000	60.9235	-0.7353	-15.8060	60.5874	-6.4290	13.5975	0.0000	-22.0367	1.6370	-1.7840	85.5284	-10.0144	19.2210	4.1569	66.7854	-58.5285	-36.3429	94.0868	-6.1412	25.7684	-1.9847	56.8388	-42.7082	-21.5867	
12.5160	-4.8873	-0.0356	-86.1922	0.0000	1.2500	-0.0000	56.0188	-1.9623	-10.0688	86.6348	-17.6688	2.2690	0.0000	57.1438	-1.3978	-16.5739	55.3983	-7.6605	13.9428	-0.0000	-22.0485	1.8822	-1.5085	86.0342	-9.6147	19.2111	3.9204	67.3851	-58.5382	-36.3032	94.0519	-6.4302	25.7352	-1.8113	56.5337	-42.7784	-21.7214	
12.5330	-4.9789	-0.5053	-86.9190	0.0000	1.2500	-0.0000	59.0549	-1.5656	-10.0572	90.3713	-16.7985	2.4809	-0.0000	53.2250	-2.0183	-17.3225	50.2581	-9.0547	14.1629	-0.0000	-22.0470	2.1126	-1.2275	86.5798	-9.1650	19.0906	3.6224	68.0758	-58.5488	-36.2977	94.0022	-6.7735	25.8158	-1.6325	56.0484	-42.8656	-21.9126	
12.5490	-5.0616	-0.9744	-87.5897	0.0000	1.2500	-0.0000	62.0592	-1.1393	-9.9270	93.6475	-15.6533	2.6208	-0.0000	49.5100	-2.5683	-17.9358	45.6746	-10.4866	14.3237	-0.0000	-22.0297	2.3338	-0.9552	86.9429	-8.7724	19.0429	3.3619	68.6177	-58.5561	-36.3176	93.8737	-7.0790	25.8685	-1.5269	55.6015	-42.9782	-22.1083	
12.5660	-5.1150	-1.4658	-88.1895	0.0000	1.2500	-0.0000	65.0287	-0.6675	-9.5664	96.5153	-13.9909	2.5988	-0.0000	46.0170	-3.0800	-18.3127	41.6884	-11.9992	14.4741	-0.0000	-21.9829	2.5560	-0.6907	86.9961	-8.4788	19.1812	3.1543	68.8813	-58.5588	-36.3702	93.6009	-7.3260	25.8569	-1.5565	55.2438	-43.1408	-22.3129	
12.5830	-5.1606	-1.9560	-88.7328	0.0000	1.2500	-0.0000	67.9708	-0.1493	-9.0832	98.9230	-12.0623	2.5177	-0.0000	42.7255	-3.5706	-18.5259	38.2546	-13.5497	14.5835	0.0000	-21.9188	2.7703	-0.4356	86.8688	-8.2469	19.3959	2.9834	68.9968	-58.5580	-36.4482	93.2501	-7.5319	25.8184	-1.6606	54.9246	-43.3289	-22.5222	
12.5990	-5.2106	-2.3922	-89.1607	0.0000	1.2500	-0.0000	70.7881	0.3660	-8.6550	100.6567	-10.6031	2.4581	-0.0000	39.9233	-4.0085	-18.6824	35.7414	-14.8835	14.5918	0.0000	-21.8715	2.9541	-0.2076	86.7247	-8.0659	19.5372	2.8992	69.1153	-58.5533	-36.5202	92.9565	-7.6626	25.7243	-1.7369	54.7092	-43.4773	-22.6708	
12.6160	-5.2777	-2.7797	-89.4354	0.0000	1.2500	-0.0000	73.5505	0.8667	-8.3000	101.6455	-9.9771	2.4195	-0.0000	37.6901	-4.3882	-18.7774	34.2308	-15.9379	14.4175	-0.0000	-21.8513	3.1113	-0.0143	86.6088	-7.9343	19.5112	2.9457	69.3381	-58.5382	-36.5745	92.7633	-7.6868	25.5230	-1.7579	54.6571	-43.5615	-22.7206	
12.6330	-5.3528	-3.1129	-89.5950	0.0000	1.2500	-0.0000	76.1864	1.3557	-7.9720	101.9602	-9.8181	2.3619	-0.0000	35.9492	-4.7380	-18.7695	33.6271	-16.7760	14.1446	0.0000	-21.8456	3.2368	0.1523	86.4778	-7.8535	19.4125	3.0778	69.5640	-58.5190	-36.6227	92.6296	-7.6381	25.2678	-1.7515	54.7083	-43.6058	-22.7095	
12.6490	-5.4152	-3.3225	-89.6945	0.0000	1.2500	-0.0000	78.3850	1.7951	-7.7362	101.6019	-9.7643	2.3024	-0.0000	34.7561	-5.0589	-18.6965	34.0338	-17.3325	13.9398	0.0000	-21.8539	3.2933	0.2981	86.3621	-7.8149	19.3739	3.2135	69.6411	-58.5145	-36.6689	92.5639	-7.5809	25.0876	-1.6987	54.7490	-43.6174	-22.6852	
12.6660	-5.4624	-3.3850	-89.7592	0.0000	1.2500	-0.0000	80.1278	2.1862	-7.5645	100.5280	-9.8283	2.2628	0.0000	34.1716	-5.3823	-18.5613	35.6080	-17.5204	13.8444	0.0000	-21.8803	3.2640	0.4405	86.2794	-7.8436	19.4976	3.3247	69.4486	-58.5323	-36.7172	92.5822	-7.5248	25.0249	-1.5716	54.7437	-43.5916	-22.6625	
12.6830	-5.4979	-3.3237	-89.7634	0.0000	1.2500	-0.0000	81.4308	2.5300	-7.4601	98.7852	-9.9971	2.2194	-0.0000	34.1374	-5.6754	-18.3394	38.2015	-17.4262	13.7866	-0.0000	-21.9204	3.1656	0.5619	86.2121	-7.9147	19.6808	3.4415	69.1080	-58.5646	-36.7639	92.6684	-7.4613	25.0369	-1.3984	54.7280	-43.5331	-22.6265	
12.7000	-5.5090	-3.1399	-89.6865	0.0000	1.2500	-0.0000	82.0364	2.7841	-7.5295	96.5102	-9.8724	2.1354	-0.0000	34.5290	-5.8356	-18.0329	41.4678	-17.2445	13.7587	-0.0000	-21.9616	3.0115	0.6160	86.1376	-7.9444	19.7486	3.5708	68.8309	-58.6066	-36.8016	92.7825	-7.4278	25.1242	-1.2455	54.6954	-43.4639	-22.5798	
12.7160	-5.4939	-2.8130	-89.5219	0.0000	1.2500	-0.0000	81.8239	2.9552	-7.8434	93.7039	-9.1756	1.9414	-0.0000	35.3617	-5.8152	-17.6243	45.4439	-17.0192	13.7774	0.0000	-22.0024	2.7922	0.5822	86.0404	-7.8904	19.5750	3.7299	68.7341	-58.6604	-36.8286	92.9250	-7.4567	25.3272	-1.1317	54.6019	-43.3901	-22.5255	
12.7330	-5.4526	-2.3637	-89.2767	0.0000	1.2500	-0.0000	80.9175	3.0338	-8.3274	90.3671	-8.1871	1.7180	-0.0000	36.6206	-5.6516	-17.1449	50.1076	-16.7048	13.8154	-0.0000	-22.0460	2.5177	0.4811	85.9367	-7.7932	19.2868	3.9008	68.7004	-58.7240	-36.8465	93.0961	-7.5150	25.6056	-1.0383	54.4914	-43.3056	-22.4607	
12.7500	-5.3748	-1.8558	-88.9508	0.0000	1.2500	-0.0000	79.4274	2.9502	-8.8780	86.6320	-7.3479	1.6611	-0.0000	38.1341	-5.3709	-16.6751	55.0203	-16.3639	13.8117	-0.0000	-22.0870	2.2304	0.3288	85.8514	-7.6937	19.0887	4.0369	68.5907	-58.7860	-36.8536	93.2546	-7.5419	25.8399	-0.9756	54.4893	-43.2136	-22.3781	
12.7660	-5.2383	-1.2911	-88.5441	0.0000	1.2500	-0.0000	77.3103	2.6626	-9.4929	82.4698	-6.6967	1.8517	-0.0000	39.8575	-4.9341	-16.2625	60.1487	-16.0562	13.7239	-0.0000	-22.1251	1.9366	0.1212	85.7653	-7.5905	19.0971	4.1099	68.3065	-58.8480	-36.8490	93.3803	-7.5248	25.9801	-0.9457	54.6531	-43.1152	-22.2763	
12.7830	-5.0622	-0.6691	-88.0585	0.0000	1.2500	-0.0000	74.6144	2.2207	-10.2183	77.8901	-6.1929	2.2199	-0.0000	41.8314	-4.3750	-15.8919	65.5301	-15.7238	13.5971	0.0000	-22.1620	1.6297	-0.1369	85.6979	-7.4861	19.1954	4.1469	67.9460	-58.9084	-36.8333	93.4922	-7.4760	26.0759	-0.9462	54.9256	-43.0096	-22.1571	
